<?xml version="1.0" encoding="UTF-8"?>
<svg width="36px" height="36px" viewBox="0 0 36 36" version="1.1" xmlns="http://www.w3.org/2000/svg" xmlns:xlink="http://www.w3.org/1999/xlink">
    <!-- Generator: Sketch 63.1 (92452) - https://sketch.com -->
    <title>Artboard Copy</title>
    <desc>Created with Sketch.</desc>
    <g id="Artboard-Copy" stroke="none" stroke-width="1" fill="none" fill-rule="evenodd">
        <g id="search" transform="translate(10.000000, 10.000000)" fill="#51CF27" fill-rule="nonzero">
            <path d="M15.4398441,12.6153606 L12.8049903,9.98050682 C13.2840546,9.02237817 13.6034308,7.9045614 13.6034308,6.78674464 C13.6034308,3.03407407 10.5693567,0 6.81668616,0 C3.06401559,0 0.0299415205,3.03407407 0.0299415205,6.78674464 C0.0299415205,10.5394152 3.06401559,13.5734893 6.81668616,13.5734893 C7.93450292,13.5734893 9.05231969,13.2541131 10.0104483,12.7750487 L12.6453021,15.4099025 C13.4437427,16.2083431 14.6414035,16.2083431 15.4398441,15.4099025 C16.1584405,14.611462 16.1584405,13.4138012 15.4398441,12.6153606 Z M6.81668616,11.9766082 C3.94230019,11.9766082 1.62682261,9.6611306 1.62682261,6.78674464 C1.62682261,3.91235867 3.94230019,1.59688109 6.81668616,1.59688109 C9.69107212,1.59688109 12.0065497,3.91235867 12.0065497,6.78674464 C12.0065497,9.6611306 9.69107212,11.9766082 6.81668616,11.9766082 Z" id="Shape"></path>
        </g>
    </g>
</svg>